<svg xmlns="http://www.w3.org/2000/svg" width="17" height="15" viewBox="0 0 17 15" fill="none">
  <path
    d="M1 1.302L2.47333 1.557L4.15421 9.68371C4.20946 10.346 4.76267 10.8546 5.42708 10.8546H12.1577C12.7923 10.8546 13.3307 10.3885 13.4221 9.7595L15.5754 4.33579C15.6582 3.76275 15.2141 3.24992 14.6354 3.24992L3.04808 4.33579M5.01797 13.0393C5.31689 13.0393 5.55985 13.2823 5.55985 13.5812C5.55985 13.8801 5.31689 14.1223 5.01797 14.1223C4.71906 14.1223 4.47681 13.8801 4.47681 13.5812C4.47681 13.2823 4.71906 13.0393 5.01797 13.0393ZM12.2802 13.0393C12.5791 13.0393 12.822 13.2823 12.822 13.5812C12.822 13.8801 12.5791 14.1223 12.2802 14.1223C11.9812 14.1223 11.7383 13.8801 11.7383 13.5812C11.7383 13.2823 11.9812 13.0393 12.2802 13.0393Z"
    stroke="white" stroke-width="1.4" stroke-linecap="round" stroke-linejoin="round"/>
</svg>
