<svg width="25" height="29" viewBox="0 0 25 29" fill="none" xmlns="http://www.w3.org/2000/svg">
<path fill-rule="evenodd" clip-rule="evenodd" d="M12.5017 0.758789C15.8433 0.758789 18.9837 2.22504 21.3425 4.88845C26.2183 10.3912 26.2183 19.3436 21.3425 24.8463C18.9523 27.5451 15.734 28.9733 12.4738 28.9733C10.6965 28.9733 8.90765 28.5493 7.23393 27.6751C6.74077 27.4519 6.27901 27.2419 5.94752 27.2419C5.56602 27.2445 5.05308 27.4441 4.5576 27.637C3.54103 28.0308 2.27556 28.5218 1.33925 27.469C0.406436 26.4149 0.836789 24.9907 1.1834 23.8447C1.35438 23.2803 1.53001 22.6974 1.53001 22.2564C1.53001 21.8941 1.37531 21.432 1.13804 20.7665C-1.04048 15.4568 -0.0332218 9.05749 3.662 4.88976C6.0208 2.22635 9.16005 0.758789 12.5017 0.758789ZM12.5028 2.72779C9.62646 2.72779 6.92454 3.99058 4.8949 6.28251C1.71494 9.86872 0.849583 15.3754 2.73965 19.9868C3.01182 20.7468 3.27468 21.4872 3.27468 22.2564C3.27468 23.0243 3.04089 23.7975 2.83502 24.4801C2.66521 25.0419 2.40816 25.8899 2.57332 26.0763C2.73499 26.2653 3.49102 25.9673 3.99 25.7743C4.589 25.5433 5.26826 25.2782 5.9417 25.2729C6.61631 25.2729 7.25254 25.5617 7.92598 25.8675C12.0516 28.0203 16.9308 27.0411 20.1096 23.4549C24.3038 18.7187 24.3038 11.0147 20.1096 6.28119C18.0788 3.98927 15.3781 2.72779 12.5028 2.72779ZM17.0935 14.0991C17.7356 14.0991 18.2567 14.6858 18.2567 15.4117C18.2567 16.1376 17.7356 16.7244 17.0935 16.7244C16.4515 16.7244 15.9258 16.1376 15.9258 15.4117C15.9258 14.6858 16.441 14.0991 17.0831 14.0991H17.0935ZM12.4308 14.0991C13.0729 14.0991 13.594 14.6858 13.594 15.4117C13.594 16.1376 13.0729 16.7244 12.4308 16.7244C11.7888 16.7244 11.2631 16.1376 11.2631 15.4117C11.2631 14.6858 11.7772 14.0991 12.4204 14.0991H12.4308ZM7.76768 14.0991C8.40972 14.0991 8.9308 14.6858 8.9308 15.4117C8.9308 16.1376 8.40972 16.7244 7.76768 16.7244C7.12564 16.7244 6.59991 16.1376 6.59991 15.4117C6.59991 14.6858 7.11517 14.0991 7.75721 14.0991H7.76768Z" fill="white"/>
</svg>
