<svg width="26" height="30" viewBox="0 0 26 30" fill="none" xmlns="http://www.w3.org/2000/svg">
<path fill-rule="evenodd" clip-rule="evenodd" d="M15.1536 2.12254L16.0673 3.15371C16.421 3.5501 16.8935 3.77016 17.3959 3.77016H18.6809C20.757 3.77016 22.4456 5.67592 22.4456 8.01897V9.46769C22.4456 10.0334 22.6406 10.568 22.9943 10.97L23.8917 11.9843C24.6029 12.7813 24.9979 13.8463 25.0017 14.9818C25.0054 16.1174 24.6167 17.1852 23.908 17.9907L22.9918 19.0219C22.6406 19.4211 22.4456 19.9529 22.4456 20.52V21.9715C22.4456 24.3132 20.757 26.2189 18.6821 26.2189H17.3934C16.8985 26.2189 16.4148 26.4446 16.0635 26.8382L15.1661 27.851C14.4324 28.6847 13.465 29.1022 12.4975 29.1022C11.5389 29.1022 10.5802 28.6932 9.84647 27.8722C9.83647 27.8609 9.82647 27.8496 9.81647 27.8369L8.92903 26.8368C8.57531 26.4404 8.10284 26.2203 7.60038 26.2189H6.31797C4.24186 26.2189 2.55448 24.3132 2.55448 21.9715V20.5172C2.55448 19.9501 2.35824 19.4183 2.00576 19.0177L1.10708 18.0048C-0.352823 16.3657 -0.370322 13.6968 1.06333 12.0322L1.09708 11.9941L2.00701 10.9644C2.35824 10.5652 2.55448 10.0305 2.55448 9.46487V8.01897C2.55448 5.67733 4.24186 3.77157 6.31671 3.77016H7.60413C8.10534 3.77016 8.57781 3.54869 8.93653 3.14948L9.83022 2.13806C11.2914 0.477747 13.68 0.469283 15.1536 2.12254ZM11.1589 3.63192L10.2602 4.64898C9.54274 5.44881 8.60156 5.8861 7.60413 5.8861H6.31797C5.27679 5.88751 4.42935 6.84392 4.42935 8.01897V9.46487C4.42935 10.5948 4.04062 11.657 3.33567 12.4582L2.44823 13.4612C2.43948 13.4725 2.43073 13.4809 2.42198 13.4908C1.68829 14.3245 1.69204 15.6773 2.43073 16.5053L3.33317 17.5238C4.04062 18.325 4.42935 19.3872 4.42935 20.5172V21.9715C4.42935 23.1466 5.27554 24.103 6.31797 24.103H7.60163C8.60406 24.1044 9.54524 24.5431 10.2539 25.3401L11.1551 26.3543L11.1801 26.3854C11.9176 27.1979 13.105 27.188 13.8374 26.3572L14.7399 25.3415C15.4398 24.553 16.4073 24.103 17.3934 24.103H18.6809C19.7233 24.103 20.5707 23.1466 20.5707 21.9715V20.52C20.5707 19.3901 20.9582 18.3279 21.6657 17.528L22.5656 16.511C22.9318 16.0962 23.128 15.5588 23.1268 14.9889C23.1255 14.4204 22.9268 13.8858 22.5681 13.4823L21.6669 12.4639C20.9582 11.6584 20.5707 10.5976 20.5707 9.46769V8.01897C20.5707 6.84251 19.7233 5.8861 18.6809 5.8861H17.3959C16.3948 5.8861 15.4536 5.4474 14.7449 4.65321L13.8424 3.63333C13.0912 2.794 11.8926 2.79823 11.1589 3.63192ZM15.6281 17.1087C16.3193 17.1087 16.878 17.7392 16.878 18.5193C16.878 19.2994 16.3193 19.9299 15.6281 19.9299C14.9369 19.9299 14.3719 19.2994 14.3719 18.5193C14.3719 17.7392 14.9256 17.1087 15.6168 17.1087H15.6281ZM16.3753 10.6216C16.7415 11.0349 16.7415 11.705 16.3753 12.1183L9.94946 19.3689C9.76698 19.5763 9.52699 19.6792 9.28701 19.6792C9.04703 19.6792 8.80704 19.5763 8.62455 19.3689C8.25833 18.9556 8.25833 18.2869 8.62455 17.8736L15.0491 10.6216C15.4153 10.2083 16.009 10.2083 16.3753 10.6216ZM9.3785 10.0555C10.0697 10.0555 10.6284 10.6861 10.6284 11.4661C10.6284 12.2462 10.0697 12.8768 9.3785 12.8768C8.6873 12.8768 8.12234 12.2462 8.12234 11.4661C8.12234 10.6861 8.67605 10.0555 9.36725 10.0555H9.3785Z" fill="white"/>
</svg>
