<svg width="20" height="29" viewBox="0 0 20 29" fill="none" xmlns="http://www.w3.org/2000/svg">
<path fill-rule="evenodd" clip-rule="evenodd" d="M19.9291 23.3089C19.9291 27.989 14.2423 28.53 9.96583 28.53L9.6598 28.5297C6.93519 28.5222 0 28.3281 0 23.2805C0 18.6959 5.45831 18.0832 9.70222 18.0601L10.2718 18.0597C12.9963 18.0672 19.9291 18.2613 19.9291 23.3089ZM9.96583 20.1893C4.60484 20.1893 1.88723 21.2287 1.88723 23.2805C1.88723 25.3508 4.60484 26.4001 9.96583 26.4001C15.3256 26.4001 18.0419 25.3607 18.0419 23.3089C18.0419 21.2386 15.3256 20.1893 9.96583 20.1893ZM9.96583 0.31543C13.6497 0.31543 16.6454 3.6977 16.6454 7.85525C16.6454 12.0128 13.6497 15.3937 9.96583 15.3937H9.92557C6.24924 15.3809 3.2712 11.9972 3.28374 7.85099C3.28374 3.6977 6.2807 0.31543 9.96583 0.31543ZM9.96583 2.34309C7.27212 2.34309 5.08039 4.81518 5.08039 7.85525C5.07161 10.8854 7.24696 13.3561 9.92934 13.3674L9.96583 14.3812V13.3674C12.6583 13.3674 14.8487 10.8939 14.8487 7.85525C14.8487 4.81518 12.6583 2.34309 9.96583 2.34309Z" fill="white"/>
</svg>
