<svg width="22" height="29" viewBox="0 0 22 29" fill="none" xmlns="http://www.w3.org/2000/svg">
<path fill-rule="evenodd" clip-rule="evenodd" d="M13.8106 0.31543C13.8646 0.31543 13.9176 0.320566 13.9692 0.330428L14.1414 0.331621C14.3981 0.331621 14.6435 0.449505 14.8222 0.658287L21.1964 8.15314C21.365 8.35056 21.4596 8.61615 21.4596 8.89026V21.9086C21.4821 25.4721 19.023 28.3837 15.8605 28.5286L5.63165 28.53C2.54847 28.4513 0.0757126 25.6372 0.000379845 22.1915L0 6.69308C0.0729912 3.16935 2.65159 0.331621 5.7512 0.331621L13.6519 0.330428C13.7035 0.320566 13.7565 0.31543 13.8106 0.31543ZM12.8666 2.46148L5.75372 2.46205C3.66844 2.46205 1.93678 4.36807 1.8877 6.71865V21.9086C1.84114 24.3416 3.54007 26.3456 5.67443 26.3995H15.8227C17.9231 26.3015 19.5868 24.3316 19.5718 21.9171L19.5717 10.2333L17.0423 10.2347C14.7393 10.2276 12.8667 8.10854 12.8667 5.51226L12.8666 2.46148ZM13.5755 18.2225C14.0965 18.2225 14.5193 18.6998 14.5193 19.2878C14.5193 19.8757 14.0965 20.353 13.5755 20.353H6.77975C6.25874 20.353 5.8359 19.8757 5.8359 19.2878C5.8359 18.6998 6.25874 18.2225 6.77975 18.2225H13.5755ZM11.002 12.8936C11.523 12.8936 11.9459 13.3708 11.9459 13.9588C11.9459 14.5468 11.523 15.0241 11.002 15.0241H6.77862C6.25761 15.0241 5.83476 14.5468 5.83476 13.9588C5.83476 13.3708 6.25761 12.8936 6.77862 12.8936H11.002ZM14.7543 3.65594L14.7544 5.51226C14.7544 6.93822 15.7826 8.10002 17.0448 8.10428L18.5372 8.10286L14.7543 3.65594Z" fill="white"/>
</svg>
