<svg id="visual" viewBox="0 0 900 600" width="900" height="600" xmlns="http://www.w3.org/2000/svg" version="1.1">
  <path
    d="M0 470L13.7 427.2C27.3 384.3 54.7 298.7 82 297.7C109.3 296.7 136.7 380.3 163.8 421.5C191 462.7 218 461.3 245.2 433.8C272.3 406.3 299.7 352.7 327 351.5C354.3 350.3 381.7 401.7 409 376.5C436.3 351.3 463.7 249.7 491 211.5C518.3 173.3 545.7 198.7 573 206.7C600.3 214.7 627.7 205.3 654.8 222.8C682 240.3 709 284.7 736.2 308.7C763.3 332.7 790.7 336.3 818 311.8C845.3 287.3 872.7 234.7 886.3 208.3L900 182"
    fill="none" stroke-linecap="round" stroke="gray" stroke-width="2"/>
</svg>
