<svg width="88" height="54" viewBox="0 0 88 54" fill="none" xmlns="http://www.w3.org/2000/svg">
<g id="return-button">
<g id="overflow-clip">
<circle id="Ellipse 1" r="25.5" transform="matrix(1 0 0 -1 27 27)" stroke="#FF721F" stroke-width="3"/>
</g>
<g id="arrows">
<path id="Vector" d="M35 28.0001H23.14L26.77 32.3601C26.9397 32.5643 27.0214 32.8276 26.997 33.092C26.9726 33.3565 26.8442 33.6004 26.64 33.7701C26.4358 33.9399 26.1725 34.0215 25.9081 33.9971C25.6436 33.9728 25.3997 33.8443 25.23 33.6401L20.23 27.6401C20.1964 27.5924 20.1663 27.5423 20.14 27.4901C20.14 27.4401 20.14 27.4101 20.07 27.3601C20.0247 27.2455 20.0009 27.1234 20 27.0001C20.0009 26.8768 20.0247 26.7548 20.07 26.6401C20.07 26.5901 20.07 26.5601 20.14 26.5101C20.1663 26.458 20.1964 26.4078 20.23 26.3601L25.23 20.3601C25.324 20.2472 25.4418 20.1565 25.5748 20.0942C25.7079 20.032 25.8531 19.9999 26 20.0001C26.2337 19.9997 26.4601 20.081 26.64 20.2301C26.7413 20.3141 26.825 20.4172 26.8863 20.5335C26.9477 20.6499 26.9855 20.7772 26.9975 20.9082C27.0096 21.0391 26.9957 21.1712 26.9567 21.2968C26.9176 21.4224 26.8542 21.5391 26.77 21.6401L23.14 26.0001H35C35.2652 26.0001 35.5196 26.1055 35.7071 26.293C35.8946 26.4806 36 26.7349 36 27.0001C36 27.2653 35.8946 27.5197 35.7071 27.7072C35.5196 27.8948 35.2652 28.0001 35 28.0001Z" fill="#FF721F"/>
<path id="Vector_2" d="M87 28.0001H75.14L78.77 32.3601C78.9397 32.5643 79.0214 32.8276 78.997 33.092C78.9726 33.3565 78.8442 33.6004 78.64 33.7701C78.4358 33.9399 78.1725 34.0215 77.9081 33.9971C77.6436 33.9728 77.3997 33.8443 77.23 33.6401L72.23 27.6401C72.1964 27.5924 72.1663 27.5423 72.14 27.4901C72.14 27.4401 72.14 27.4101 72.07 27.3601C72.0247 27.2455 72.0009 27.1234 72 27.0001C72.0009 26.8768 72.0247 26.7548 72.07 26.6401C72.07 26.5901 72.07 26.5601 72.14 26.5101C72.1663 26.458 72.1964 26.4078 72.23 26.3601L77.23 20.3601C77.324 20.2472 77.4418 20.1565 77.5748 20.0942C77.7079 20.032 77.8531 19.9999 78 20.0001C78.2337 19.9997 78.4601 20.081 78.64 20.2301C78.7413 20.3141 78.825 20.4172 78.8863 20.5335C78.9477 20.6499 78.9855 20.7772 78.9975 20.9082C79.0096 21.0391 78.9957 21.1712 78.9567 21.2968C78.9176 21.4224 78.8542 21.5391 78.77 21.6401L75.14 26.0001H87C87.2652 26.0001 87.5196 26.1055 87.7071 26.293C87.8946 26.4806 88 26.7349 88 27.0001C88 27.2653 87.8946 27.5197 87.7071 27.7072C87.5196 27.8948 87.2652 28.0001 87 28.0001Z" fill="#FF721F"/>
</g>
</g>
</svg>
